name C:\Users\antoi\Documents\MyRepositories\upper-imu-dc\Results\main_tracking\Case_100\kinematics.mot
datacolumns 43
datarows 13
range 3.46000000 3.70000000
endheader 
time	clav_prot	clav_elev	scapula_abduction	scapula_elevation	scapula_upward_rot	scapula_winging	plane_elv	shoulder_elv	axial_rot	TrapeziusScapula_M/activation	TrapeziusScapula_S/activation	TrapeziusScapula_I/activation	TrapeziusClavicle_S/activation	SerratusAnterior_I/activation	SerratusAnterior_M/activation	SerratusAnterior_S/activation	Rhomboideus_S/activation	Rhomboideus_I/activation	LevatorScapulae/activation	Coracobrachialis/activation	DeltoideusClavicle_A/activation	DeltoideusScapula_P/activation	DeltoideusScapula_M/activation	LatissimusDorsi_S/activation	LatissimusDorsi_M/activation	LatissimusDorsi_I/activation	PectoralisMajorClavicle_S/activation	PectoralisMajorThorax_I/activation	PectoralisMajorThorax_M/activation	TeresMajor/activation	Infraspinatus_I/activation	Infraspinatus_S/activation	PectoralisMinor/activation	TeresMinor/activation	Subscapularis_S/activation	Subscapularis_M/activation	Subscapularis_I/activation	Supraspinatus_P/activation	Supraspinatus_A/activation	TRIlong/activation	BIC_long/activation	BIC_brevis/activation	
          3.46000000	        -46.95289942	          4.95768915	         -9.32452825	         -5.49686318	         74.90071010	        -13.34861122	         47.31583456	         94.99999172	        -14.69827545	          0.12178223	          0.14108837	          0.08812031	          0.05274534	          0.07872646	          0.44759702	          0.01000000	          0.01000000	          0.01000000	          0.01000000	          0.01899571	          0.17141986	          0.03353178	          0.11905979	          0.01000000	          0.01000000	          0.01000000	          0.06055868	          0.01000000	          0.03719519	          0.01000002	          0.10020753	          0.06747156	          0.01000000	          0.04606830	          0.01035114	          0.01000002	          0.01000001	          0.03745329	          0.03576981	          0.01000001	          0.03189648	          0.02168134	
          3.48000000	        -46.93109418	          4.96360894	         -9.32985486	         -5.49480453	         74.84944922	        -13.34126945	         47.40086282	         94.99999440	        -14.58282911	          0.12127121	          0.14066999	          0.08795807	          0.05266393	          0.07947198	          0.44543522	          0.01000000	          0.01000000	          0.01000000	          0.01000000	          0.01854838	          0.16977145	          0.03444761	          0.11902068	          0.01000000	          0.01000000	          0.01000000	          0.05987483	          0.01000000	          0.03645828	          0.01000002	          0.09972111	          0.06794367	          0.01000000	          0.04590390	          0.01038608	          0.01000002	          0.01000001	          0.03724810	          0.03536443	          0.01000001	          0.03185150	          0.02117660	
          3.50000000	        -46.90684642	          4.96903538	         -9.33553017	         -5.49328978	         74.79241315	        -13.33263065	         47.48613859	         94.99999770	        -14.46966840	          0.12079301	          0.14028837	          0.08782886	          0.05257199	          0.08033516	          0.44328350	          0.01000000	          0.01000000	          0.01000000	          0.01000000	          0.01816669	          0.16827564	          0.03524577	          0.11909255	          0.01000000	          0.01000000	          0.01000000	          0.05923166	          0.01000000	          0.03573103	          0.01000002	          0.09932497	          0.06839510	          0.01000000	          0.04575769	          0.01041330	          0.01000002	          0.01000001	          0.03708017	          0.03501735	          0.01000001	          0.03181750	          0.02074868	
          3.52000000	        -46.88073656	          4.97307467	         -9.34263054	         -5.49299677	         74.72910642	        -13.32275984	         47.56891358	         95.00000000	        -14.35977583	          0.12038373	          0.13996176	          0.08773730	          0.05247413	          0.08134064	          0.44127044	          0.01000000	          0.01000000	          0.01000000	          0.01000000	          0.01789606	          0.16705918	          0.03581902	          0.11932413	          0.01000000	          0.01000000	          0.01000000	          0.05869111	          0.01000000	          0.03506682	          0.01000002	          0.09904060	          0.06880207	          0.01000000	          0.04562086	          0.01043665	          0.01000003	          0.01000001	          0.03697225	          0.03476310	          0.01000001	          0.03180363	          0.02045470	
          3.54000000	        -46.85344345	          4.97477958	         -9.35204895	         -5.49461629	         74.65946848	        -13.31172384	         47.64717778	         95.00000000	        -14.25384359	          0.12007138	          0.13969535	          0.08769049	          0.05236921	          0.08250863	          0.43945925	          0.01000000	          0.01000000	          0.01000000	          0.01000000	          0.01775737	          0.16618749	          0.03610457	          0.11972812	          0.01000000	          0.01000000	          0.01000000	          0.05828634	          0.01000000	          0.03449537	          0.01000002	          0.09887113	          0.06914408	          0.01000000	          0.04548612	          0.01045993	          0.01000003	          0.01000001	          0.03693530	          0.03461984	          0.01000001	          0.03181511	          0.02032177	
          3.56000000	        -46.82570897	          4.97327967	         -9.36443777	         -5.49875866	         74.58391703	        -13.29961649	         47.71981802	         95.00000000	        -14.15218593	          0.11986400	          0.13948229	          0.08768319	          0.05225595	          0.08382843	          0.43785039	          0.01000000	          0.01000000	          0.01000000	          0.01000000	          0.01776117	          0.16566373	          0.03607834	          0.12027796	          0.01000000	          0.01000000	          0.01000000	          0.05803395	          0.01000000	          0.03403673	          0.01000002	          0.09880613	          0.06940287	          0.01000000	          0.04535061	          0.01048588	          0.01000003	          0.01000001	          0.03696928	          0.03459019	          0.01000001	          0.03185010	          0.02036257	
          3.58000000	        -46.79822306	          4.96788373	         -9.38007830	         -5.50587938	         74.50331154	        -13.28652768	         47.78657456	         95.00000000	        -14.05490338	          0.11972814	          0.13927922	          0.08768614	          0.05213015	          0.08526492	          0.43633499	          0.01000000	          0.01000000	          0.01000000	          0.01000000	          0.01789322	          0.16539974	          0.03577270	          0.12088791	          0.01000000	          0.01000000	          0.01000000	          0.05791611	          0.01000000	          0.03368401	          0.01000002	          0.09881088	          0.06955676	          0.01000000	          0.04521668	          0.01051684	          0.01000003	          0.01000001	          0.03705862	          0.03465744	          0.01000001	          0.03189988	          0.02055748	
          3.60000000	        -46.77145737	          4.95814320	         -9.39878109	         -5.51623851	         74.41875492	        -13.27247790	         47.84787521	         95.00000000	        -13.96226804	          0.11959564	          0.13902369	          0.08764560	          0.05199061	          0.08674758	          0.43473566	          0.01000000	          0.01000000	          0.01000000	          0.01000000	          0.01813824	          0.16525478	          0.03524377	          0.12143329	          0.01000000	          0.01000000	          0.01000000	          0.05790239	          0.01000000	          0.03342125	          0.01000002	          0.09884433	          0.06957445	          0.01000000	          0.04509533	          0.01055358	          0.01000003	          0.01000001	          0.03717926	          0.03479661	          0.01000001	          0.03194885	          0.02088041	
          3.62000000	        -46.74547475	          4.94387030	         -9.41982046	         -5.52989604	         74.33128438	        -13.25732897	         47.90464390	         95.00000000	        -13.87525686	          0.11937046	          0.13863312	          0.08749540	          0.05184106	          0.08819875	          0.43286459	          0.01000000	          0.01000000	          0.01000000	          0.01000000	          0.01848006	          0.16507686	          0.03455477	          0.12178916	          0.01000000	          0.01000000	          0.01000000	          0.05796056	          0.01000000	          0.03323029	          0.01000002	          0.09886709	          0.06942519	          0.01000000	          0.04500001	          0.01059592	          0.01000003	          0.01000001	          0.03730593	          0.03498169	          0.01000001	          0.03198055	          0.02130273	
          3.64000000	        -46.71977544	          4.92512019	         -9.44194759	         -5.54673586	         74.24152461	        -13.24070782	         47.95818700	         95.00000000	        -13.79578693	          0.11896260	          0.13803712	          0.08718169	          0.05168990	          0.08955971	          0.43057396	          0.01000000	          0.01000000	          0.01000000	          0.01000000	          0.01890901	          0.16474546	          0.03375236	          0.12186569	          0.01000000	          0.01000000	          0.01000000	          0.05806542	          0.01000000	          0.03309283	          0.01000002	          0.09885206	          0.06908218	          0.01000000	          0.04494271	          0.01064374	          0.01000003	          0.01000001	          0.03741997	          0.03519500	          0.01000001	          0.03198243	          0.02180445	
          3.66000000	        -46.69323413	          4.90211281	         -9.46349510	         -5.56653288	         74.14939193	        -13.22196071	         48.01021883	         95.00000000	        -13.72659359	          0.11828844	          0.13716850	          0.08666659	          0.05154949	          0.09077103	          0.42778600	          0.01000000	          0.01000000	          0.01000000	          0.01000000	          0.01942959	          0.16419922	          0.03285637	          0.12162365	          0.01000000	          0.01000000	          0.01000000	          0.05821944	          0.01000000	          0.03301609	          0.01000002	          0.09879630	          0.06852601	          0.01000000	          0.04493649	          0.01069479	          0.01000003	          0.01000001	          0.03751235	          0.03542935	          0.01000001	          0.03194525	          0.02238344	
          3.68000000	        -46.66409036	          4.87517942	         -9.48246924	         -5.58899708	         74.05393597	        -13.20014018	         48.06293617	         95.00000000	        -13.67083181	          0.11729739	          0.13599375	          0.08594057	          0.05143206	          0.09182683	          0.42450231	          0.01000000	          0.01000000	          0.01000000	          0.01000000	          0.02004492	          0.16343786	          0.03186592	          0.12108360	          0.01000000	          0.01000000	          0.01000000	          0.05843279	          0.01000000	          0.03300308	          0.01000002	          0.09871042	          0.06775258	          0.01000000	          0.04498328	          0.01074982	          0.01000003	          0.01000001	          0.03758554	          0.03568777	          0.01000001	          0.03186947	          0.02304293	
          3.70000000	        -46.63010059	          4.84476465	         -9.49683824	         -5.61378405	         73.95327945	        -13.17411183	         48.11925546	         95.00000000	        -13.63144751	          0.11594154	          0.13451465	          0.08498902	          0.05135724	          0.09275641	          0.42073529	          0.01000000	          0.01000000	          0.01000000	          0.01000000	          0.02077678	          0.16247791	          0.03075977	          0.12029268	          0.01000000	          0.01000000	          0.01000000	          0.05871025	          0.01000000	          0.03303653	          0.01000002	          0.09861446	          0.06675669	          0.01000000	          0.04508490	          0.01080935	          0.01000003	          0.01000001	          0.03764738	          0.03598313	          0.01000001	          0.03175619	          0.02380506	
